<svg width="780" height="1240" viewBox="0 0 780 1240" fill="none" xmlns="http://www.w3.org/2000/svg">
<rect width="780" height="1240" rx="8" fill="#636177"/>
<g clip-path="url(#clip0_2008_78)">
<mask id="mask0_2008_78" style="mask-type:luminance" maskUnits="userSpaceOnUse" x="195" y="310" width="390" height="620">
<path d="M585 310H195V930H585V310Z" fill="white"/>
</mask>
<g mask="url(#mask0_2008_78)">
<path d="M409.442 310H338.194L484.416 603.295L411.305 756.267H497.454C510.26 756.267 522.134 748.868 527.723 736.936L579.179 629.068C586.863 612.84 586.863 593.749 578.714 577.521L461.597 342.933C451.819 322.648 431.562 310 409.442 310Z" fill="url(#paint0_linear_2008_78)"/>
<path d="M461.829 342.933C520.271 459.869 524.695 519.292 484.648 603.295L411.305 756.267H497.454C510.26 756.267 522.134 748.868 527.721 736.935L579.178 629.068C586.863 612.842 586.863 593.749 578.714 577.521L461.829 342.933Z" fill="url(#paint1_linear_2008_78)"/>
<path d="M370.791 930H441.806L295.585 636.944L368.696 483.734H282.546C269.74 483.734 257.866 491.132 252.278 503.064L200.821 610.932C193.137 627.16 193.137 646.251 201.287 662.479L318.17 897.067C328.415 917.352 348.672 930 370.791 930Z" fill="url(#paint2_linear_2008_78)"/>
<path d="M318.17 897.067C259.728 780.13 255.305 720.707 295.352 636.705L368.463 483.495H282.314C269.508 483.495 257.633 490.893 252.045 502.825L200.821 610.932C193.137 627.16 193.137 646.251 201.287 662.479L318.17 897.067Z" fill="white"/>
</g>
<line x1="222.007" y1="998.12" x2="544.254" y2="235.653" stroke="url(#paint3_linear_2008_78)" stroke-width="16" stroke-linecap="round"/>
</g>
<defs>
<linearGradient id="paint0_linear_2008_78" x1="320.732" y1="310" x2="508.582" y2="583.742" gradientUnits="userSpaceOnUse">
<stop stop-color="white"/>
<stop offset="0.9997" stop-color="#E3F2F7"/>
</linearGradient>
<linearGradient id="paint1_linear_2008_78" x1="479.828" y1="563.97" x2="645.85" y2="616.419" gradientUnits="userSpaceOnUse">
<stop stop-color="white"/>
<stop offset="0.477083" stop-color="#9895B4" stop-opacity="0.4494"/>
<stop offset="1" stop-color="#EDFBFF"/>
</linearGradient>
<linearGradient id="paint2_linear_2008_78" x1="380.105" y1="945.989" x2="305.629" y2="557.661" gradientUnits="userSpaceOnUse">
<stop stop-color="#9895B4"/>
<stop offset="1" stop-color="#E3F2F6"/>
</linearGradient>
<linearGradient id="paint3_linear_2008_78" x1="555.198" y1="231.593" x2="226.722" y2="1008.8" gradientUnits="userSpaceOnUse">
<stop stop-color="#999999"/>
<stop offset="1" stop-color="white"/>
</linearGradient>
<clipPath id="clip0_2008_78">
<rect width="390" height="620" fill="white" transform="translate(195 310)"/>
</clipPath>
</defs>
</svg>
